<?xml version="1.0" standalone="no"?>
<!DOCTYPE svg PUBLIC "-//W3C//DTD SVG 20010904//EN"
 "http://www.w3.org/TR/2001/REC-SVG-20010904/DTD/svg10.dtd">
<svg version="1.0" xmlns="http://www.w3.org/2000/svg"
 width="1016.000000pt" height="1016.000000pt" viewBox="0 0 1016.000000 1016.000000"
 preserveAspectRatio="xMidYMid meet">
<metadata>
Created by potrace 1.14, written by Peter Selinger 2001-2017
</metadata>
<g transform="translate(0.000000,1016.000000) scale(0.100000,-0.100000)"
fill="#623a99" stroke="none">
<path d="M423 9806 c-172 -42 -321 -186 -365 -355 -16 -62 -17 -332 -17 -4331
0 -3999 1 -4269 17 -4331 44 -168 187 -308 363 -354 81 -22 9237 -22 9318 0
87 23 162 66 227 130 77 76 113 138 136 234 17 73 18 246 18 4317 0 3002 -3
4258 -11 4300 -34 189 -196 353 -387 393 -82 17 -9228 14 -9299 -3z m4798
-2936 c223 -23 424 -101 579 -227 255 -207 369 -469 339 -781 -24 -257 -125
-463 -317 -644 -147 -139 -317 -231 -552 -298 l-95 -28 -35 -287 -35 -287
-135 0 -135 0 -42 349 c-23 191 -42 356 -42 366 -1 10 6 17 18 17 38 0 198 52
276 90 154 75 254 180 335 353 63 133 84 236 84 402 0 116 -3 154 -22 219 -68
236 -216 398 -432 472 -78 27 -348 27 -432 1 -32 -10 -58 -21 -58 -26 0 -4 17
-13 38 -19 94 -29 199 -144 233 -255 47 -150 6 -291 -115 -405 -88 -82 -150
-106 -276 -107 -87 0 -101 3 -160 32 -36 17 -77 43 -92 56 -178 164 -185 443
-15 665 176 231 664 384 1088 342z m-186 -2881 c33 -6 80 -22 106 -35 62 -31
142 -112 177 -177 25 -48 27 -61 27 -167 0 -112 -1 -117 -34 -178 -39 -71
-107 -138 -178 -173 -42 -21 -62 -24 -163 -24 -105 0 -120 2 -170 27 -150 74
-229 229 -209 409 16 147 143 281 299 315 71 16 76 16 145 3z"/>
</g>
</svg>
